<svg width="24" height="24" viewBox="0 0 24 24" fill="none" xmlns="http://www.w3.org/2000/svg">
<path d="M8.66659 18V16H7.33325V14.6667H8.66659V13.3333H7.33325V12H8.66659V6H12.9999C14.0221 6 14.8888 6.35556 15.5999 7.06667C16.311 7.77778 16.6666 8.64444 16.6666 9.66667C16.6666 10.6889 16.311 11.5556 15.5999 12.2667C14.8888 12.9778 14.0221 13.3333 12.9999 13.3333H9.99992V14.6667H12.6666V16H9.99992V18H8.66659ZM9.99992 12H12.9999C13.6444 12 14.1944 11.7722 14.6499 11.3167C15.1055 10.8611 15.3333 10.3111 15.3333 9.66667C15.3333 9.02222 15.1055 8.47222 14.6499 8.01667C14.1944 7.56111 13.6444 7.33333 12.9999 7.33333H9.99992V12Z" fill="#E3E3E3"/>
<line x1="3.35355" y1="4.64645" x2="19.3536" y2="20.6464" stroke="white"/>
<circle cx="12" cy="12" r="11.5" stroke="white"/>
</svg>
