<svg width="115" height="79" viewBox="0 0 115 79" fill="none" xmlns="http://www.w3.org/2000/svg">
<path d="M13.0759 23.7427C13.3549 23.7427 13.6028 23.7419 13.7808 23.7419C13.8699 23.7419 13.9417 23.7426 13.991 23.7426C14.0156 23.7426 14.0347 23.7425 14.0476 23.7425C14.0541 23.7425 14.0592 23.7419 14.0625 23.7419C14.0641 23.7419 14.0656 23.7424 14.0665 23.7424L14.0674 23.7428L28.6173 23.7427C33.2909 23.7427 37.7467 25.7197 40.8823 29.1852C43.0536 31.5849 44.4728 34.569 44.9649 37.7676L46.0876 45.0635L46.0879 45.0626C46.091 45.0905 46.0956 45.1326 46.1015 45.1872C46.1135 45.2967 46.1308 45.458 46.1516 45.6589C46.1934 46.061 46.2494 46.6235 46.3073 47.2633C46.4245 48.5595 46.5431 50.1134 46.5682 51.2956C46.5779 51.749 46.5778 52.3469 46.5752 52.8458C46.574 53.092 46.5724 53.309 46.5708 53.4639C46.57 53.5411 46.5693 53.6031 46.5688 53.6453C46.5685 53.6661 46.5682 53.6824 46.5681 53.6931C46.568 53.6982 46.5679 53.702 46.5678 53.7046C46.5678 53.7058 46.5677 53.7071 46.5677 53.7077L46.5682 53.7089L46.5679 53.7423L46.5671 54.3754L44.317 54.7495C44.2981 54.7501 44.2775 54.7511 44.2554 54.7518C44.1109 54.7566 43.899 54.763 43.6347 54.7705C43.1057 54.7854 42.3661 54.8037 41.5253 54.8157C39.8258 54.8399 37.7757 54.8387 36.2144 54.7468C33.5555 54.5904 29.8814 54.0296 27.5634 53.6412C26.3511 53.4381 25.1498 53.1028 23.9638 52.6581L20.9673 51.5344C17.1527 50.104 14.1161 47.1337 12.6032 43.3511C11.919 41.6403 11.5679 39.814 11.5679 37.9715L11.5678 25.7427L11.5669 23.7436C12.0334 23.7436 12.6001 23.7427 13.0759 23.7427Z" stroke="url(#paint0_linear_6504_17)" stroke-width="5"/>
<path d="M94.4997 9.52057C93.1135 9.52059 91.452 9.63749 90.1011 9.7603C89.4335 9.82099 88.8566 9.88126 88.4478 9.92669C88.2439 9.94934 88.0823 9.96821 87.9727 9.98121C87.9553 9.98327 87.9389 9.98517 87.9242 9.98693L83.6358 10.9393L78.8215 12.3834L75.203 13.7987C70.3852 15.6839 66.0091 18.5463 62.3509 22.2045L59.3935 25.1618C58.4288 26.1265 57.5612 27.1849 56.8044 28.3201L55.477 30.3122C55.3371 30.522 55.2249 30.7492 55.1452 30.9885C55.0487 31.2778 54.9996 31.5811 54.9996 31.8861L54.9998 35.0196L54.9996 43.0206L55 48.5199L55.0002 53.2842L55.0009 54.6918C55.72 54.7413 56.6303 54.8036 57.4581 54.8589C58.0547 54.8988 58.607 54.9354 59.0094 54.9621C59.2102 54.9754 59.3738 54.9861 59.4872 54.9936C59.5438 54.9973 59.5883 55.0002 59.6183 55.0022C59.633 55.0032 59.6446 55.0043 59.6523 55.0048C59.6562 55.005 59.6596 55.0055 59.6615 55.0057L59.6637 55.0057L59.6646 55.0052L59.6916 55.0069L59.7183 55.01L59.758 55.013C59.7905 55.0156 59.8421 55.0189 59.9109 55.0238C60.0486 55.0336 60.2562 55.0477 60.5241 55.0618C61.0606 55.0898 61.8358 55.1192 62.7716 55.1242C64.6539 55.1343 67.1359 55.0446 69.6152 54.6589C71.242 54.4059 73.6709 53.6565 76.2612 52.7199C81.9304 50.6697 86.7125 46.6291 90.3073 41.5433C94.0566 36.239 96.2408 29.9881 96.6114 23.5031L97 16.709L97 9.52079L94.4997 9.52057Z" stroke="url(#paint1_linear_6504_17)" stroke-width="5"/>
<mask id="path-3-inside-1_6504_17" fill="white">
<rect x="44" y="60" width="13.5" height="19" rx="0.5"/>
</mask>
<rect x="44" y="60" width="13.5" height="19" rx="0.5" stroke="url(#paint2_linear_6504_17)" stroke-width="10" mask="url(#path-3-inside-1_6504_17)"/>
<defs>
<linearGradient id="paint0_linear_6504_17" x1="6.60447" y1="29.1057" x2="52.6738" y2="46.9138" gradientUnits="userSpaceOnUse">
<stop offset="0.139414" stop-color="#EC4899"/>
<stop offset="0.850971" stop-color="#8B5CF6"/>
</linearGradient>
<linearGradient id="paint1_linear_6504_17" x1="104.846" y1="18.6898" x2="47.6599" y2="47.3391" gradientUnits="userSpaceOnUse">
<stop offset="0.139414" stop-color="#EC4899"/>
<stop offset="0.850971" stop-color="#8B5CF6"/>
</linearGradient>
<linearGradient id="paint2_linear_6504_17" x1="50.75" y1="60" x2="50.75" y2="79" gradientUnits="userSpaceOnUse">
<stop offset="0.139414" stop-color="#EC4899"/>
<stop offset="0.850971" stop-color="#8B5CF6"/>
</linearGradient>
</defs>
</svg>
