<svg width="98" height="98" viewBox="0 0 98 98" fill="none" xmlns="http://www.w3.org/2000/svg">
<path d="M50.1228 77.5833C50.9395 77.5153 51.6371 77.192 52.2155 76.6135C52.794 76.0351 53.0833 75.3375 53.0833 74.5208C53.0833 73.5681 52.777 72.8024 52.1645 72.224C51.552 71.6455 50.7694 71.3903 49.8166 71.4583C47.0263 71.6625 44.0659 70.8969 40.9353 69.1615C37.8048 67.426 35.8312 64.2785 35.0145 59.7187C34.8784 58.9701 34.5211 58.3576 33.9426 57.8812C33.3642 57.4049 32.7006 57.1667 31.952 57.1667C30.9992 57.1667 30.2166 57.524 29.6041 58.2385C28.9916 58.9531 28.7874 59.7868 28.9916 60.7396C30.1485 66.9326 32.8708 71.3562 37.1583 74.0104C41.4458 76.6646 45.7673 77.8556 50.1228 77.5833ZM48.9999 89.8333C39.6763 89.8333 31.901 86.6347 25.6739 80.2375C19.4468 73.8403 16.3333 65.8778 16.3333 56.35C16.3333 49.5444 19.0385 42.1434 24.4489 34.1469C29.8593 26.1503 38.043 17.4903 48.9999 8.16666C59.9569 17.4903 68.1405 26.1503 73.551 34.1469C78.9614 42.1434 81.6666 49.5444 81.6666 56.35C81.6666 65.8778 78.553 73.8403 72.326 80.2375C66.0989 86.6347 58.3235 89.8333 48.9999 89.8333ZM48.9999 81.6667C56.0777 81.6667 61.9305 79.2677 66.5583 74.4698C71.186 69.6719 73.4999 63.6319 73.4999 56.35C73.4999 51.3819 71.4412 45.7674 67.3239 39.5062C63.2065 33.2451 57.0985 26.4056 48.9999 18.9875C40.9013 26.4056 34.7933 33.2451 30.676 39.5062C26.5586 45.7674 24.4999 51.3819 24.4999 56.35C24.4999 63.6319 26.8138 69.6719 31.4416 74.4698C36.0694 79.2677 41.9221 81.6667 48.9999 81.6667Z" fill="white" fill-opacity="0.88"/>
</svg>
