<svg width="98" height="98" viewBox="0 0 98 98" fill="none" xmlns="http://www.w3.org/2000/svg">
<path d="M31.1354 26.1333L42.5687 11.3313C43.3854 10.2424 44.3552 9.44271 45.4781 8.9323C46.601 8.42188 47.775 8.16667 49 8.16667C50.225 8.16667 51.3989 8.42188 52.5218 8.9323C53.6447 9.44271 54.6145 10.2424 55.4312 11.3313L66.8645 26.1333L84.2187 31.9521C85.9882 32.4965 87.3833 33.5004 88.4041 34.9635C89.4249 36.4267 89.9354 38.0431 89.9354 39.8125C89.9354 40.6292 89.8163 41.4458 89.5781 42.2625C89.3399 43.0792 88.9486 43.8618 88.4041 44.6104L77.175 60.5354L77.5833 77.2771C77.6513 79.659 76.8687 81.6667 75.2354 83.3C73.602 84.9333 71.6965 85.75 69.5187 85.75C69.3826 85.75 68.634 85.6479 67.2729 85.4438L49 80.3396L30.727 85.4438C30.3868 85.5799 30.0125 85.6649 29.6041 85.699C29.1958 85.733 28.8215 85.75 28.4812 85.75C26.3034 85.75 24.3979 84.9333 22.7645 83.3C21.1312 81.6667 20.3486 79.659 20.4166 77.2771L20.825 60.4333L9.69788 44.6104C9.15343 43.8618 8.76211 43.0792 8.52392 42.2625C8.28572 41.4458 8.16663 40.6292 8.16663 39.8125C8.16663 38.1111 8.66003 36.5288 9.64683 35.0656C10.6336 33.6024 12.0118 32.5646 13.7812 31.9521L31.1354 26.1333ZM36.1375 33.1771L16.3333 39.7104L28.9916 57.9833L28.5833 77.4813L49 71.8667L69.4166 77.5833L69.0083 57.9833L81.6666 39.9146L61.8625 33.1771L49 16.3333L36.1375 33.1771Z" fill="white" fill-opacity="0.88"/>
</svg>
