<svg width="98" height="98" viewBox="0 0 98 98" fill="none" xmlns="http://www.w3.org/2000/svg">
<path d="M24.4999 57.1667C24.4999 60.7056 25.2145 64.0573 26.6437 67.2219C28.0728 70.3865 30.1145 73.1597 32.7687 75.5417C32.7006 75.2014 32.6666 74.8951 32.6666 74.6229V73.7042C32.6666 71.5264 33.0749 69.4847 33.8916 67.5792C34.7083 65.6736 35.8992 63.9382 37.4645 62.3729L48.9999 51.0417L60.5353 62.3729C62.1006 63.9382 63.2916 65.6736 64.1083 67.5792C64.9249 69.4847 65.3333 71.5264 65.3333 73.7042V74.6229C65.3333 74.8951 65.2992 75.2014 65.2312 75.5417C67.8853 73.1597 69.927 70.3865 71.3562 67.2219C72.7853 64.0573 73.4999 60.7056 73.4999 57.1667C73.4999 53.7639 72.8704 50.5483 71.6114 47.5198C70.3524 44.4913 68.5319 41.7861 66.1499 39.4042C64.7888 40.2889 63.3596 40.9524 61.8624 41.3948C60.3652 41.8372 58.834 42.0583 57.2687 42.0583C53.0492 42.0583 49.3912 40.6632 46.2947 37.8729C43.1982 35.0826 41.4117 31.6458 40.9353 27.5625C38.2812 29.8083 35.9333 32.1392 33.8916 34.5552C31.8499 36.9712 30.1315 39.4212 28.7364 41.9052C27.3412 44.3892 26.2864 46.9243 25.5718 49.5104C24.8572 52.0965 24.4999 54.6486 24.4999 57.1667ZM48.9999 62.475L43.1812 68.1917C42.4326 68.9403 41.8541 69.791 41.4458 70.7438C41.0374 71.6965 40.8333 72.6833 40.8333 73.7042C40.8333 75.882 41.6329 77.7535 43.2322 79.3188C44.8315 80.884 46.7541 81.6667 48.9999 81.6667C51.2458 81.6667 53.1683 80.884 54.7676 79.3188C56.3669 77.7535 57.1666 75.882 57.1666 73.7042C57.1666 72.6153 56.9624 71.6115 56.5541 70.6927C56.1458 69.774 55.5673 68.9403 54.8187 68.1917L48.9999 62.475ZM48.9999 12.25V25.725C48.9999 28.0389 49.7996 29.9785 51.3989 31.5438C52.9982 33.109 54.9548 33.8917 57.2687 33.8917C58.4937 33.8917 59.6336 33.6365 60.6885 33.126C61.7433 32.6156 62.6791 31.85 63.4958 30.8292L65.3333 28.5833C70.3694 31.4417 74.3506 35.4229 77.277 40.5271C80.2034 45.6313 81.6666 51.1778 81.6666 57.1667C81.6666 66.2861 78.502 74.0104 72.1728 80.3396C65.8437 86.6688 58.1194 89.8333 48.9999 89.8333C39.8805 89.8333 32.1562 86.6688 25.827 80.3396C19.4978 74.0104 16.3333 66.2861 16.3333 57.1667C16.3333 48.3875 19.2767 40.0507 25.1635 32.1563C31.0503 24.2618 38.9958 17.6264 48.9999 12.25Z" fill="white" fill-opacity="0.88"/>
</svg>
